<?xml version="1.0" encoding="iso-8859-1"?>
<!-- Uploaded to: SVG Repo, www.svgrepo.com, Generator: SVG Repo Mixer Tools -->
<!DOCTYPE svg PUBLIC "-//W3C//DTD SVG 1.1//EN" "http://www.w3.org/Graphics/SVG/1.1/DTD/svg11.dtd">
<svg fill="#000000" height="800px" width="800px" version="1.1" id="Capa_1" xmlns="http://www.w3.org/2000/svg" xmlns:xlink="http://www.w3.org/1999/xlink" 
	 viewBox="0 0 316.634 316.634" xml:space="preserve">
<path d="M237.345,227.815c-25.901,0-48.537-14.24-60.49-35.305l-9.35-6.486c-3.403-2.361-4.249-7.034-1.887-10.437
	c0.95-1.369,2.274-2.324,3.739-2.823c-0.483-2.277-0.854-4.594-1.108-6.946h-19.864c-0.254,2.359-0.626,4.679-1.111,6.961
	c1.447,0.503,2.753,1.453,3.693,2.808c2.361,3.403,1.516,8.076-1.887,10.437l-9.268,6.43
	c-11.945,21.093-34.599,35.362-60.521,35.362c-35.788,0-65.345-27.189-69.096-61.998H7.5c-4.142,0-7.5-3.358-7.5-7.5
	s3.358-7.5,7.5-7.5h2.694C13.945,116.009,43.502,88.82,79.29,88.82c35.788,0,65.344,27.189,69.095,61.998h19.864
	C172,116.009,201.557,88.82,237.345,88.82s65.345,27.189,69.096,61.998h2.694c4.142,0,7.5,3.358,7.5,7.5s-3.358,7.5-7.5,7.5h-2.694
	C302.689,200.625,273.133,227.815,237.345,227.815z M237.345,103.82c-30.05,0-54.498,24.447-54.498,54.498
	s24.447,54.498,54.498,54.498c29.705,0,53.936-23.89,54.488-53.465c-0.046-0.337-0.07-0.682-0.07-1.032s0.024-0.695,0.07-1.032
	C291.28,127.709,267.05,103.82,237.345,103.82z M24.802,159.346c0.549,29.578,24.781,53.469,54.488,53.469
	c30.05,0,54.497-24.447,54.497-54.498S109.34,103.82,79.29,103.82c-29.707,0-53.938,23.891-54.488,53.469
	c0.046,0.336,0.07,0.68,0.07,1.029S24.848,159.01,24.802,159.346z"/>
</svg>